<?xml version="1.0" encoding="utf-8"?>
<!-- Generator: Adobe Illustrator 23.0.3, SVG Export Plug-In . SVG Version: 6.00 Build 0)  -->
<svg version="1.1" id="katman_1" xmlns="http://www.w3.org/2000/svg" xmlns:xlink="http://www.w3.org/1999/xlink" x="0px" y="0px"
	 viewBox="0 0 200.2 60" style="enable-background:new 0 0 200.2 60;" xml:space="preserve">
<style type="text/css">
	.st0{fill:#005181;}
</style>
<g>
	<g>
		<path class="st0" d="M66.9,23.9v3.5H55.4v2.9h9.3v3.5h-9.3v6.4h-3.6V23.9H66.9z"/>
		<path class="st0" d="M83.7,28.8h-3.6v-1.3h-9.2v2.9h9.4c1.8,0,3.4,1.5,3.4,3.4V37c0,1.9-1.5,3.4-3.4,3.4h-9.6
			c-1.9,0-3.4-1.5-3.4-3.4v-1.5h3.5v1.3H80v-2.9h-9.4c-1.9,0-3.4-1.5-3.4-3.4v-3.2c0-1.9,1.5-3.4,3.4-3.4h9.6c1.8,0,3.4,1.5,3.4,3.4
			L83.7,28.8L83.7,28.8z"/>
		<path class="st0" d="M101.6,28.8H98v-1.3h-9.2v2.9h9.4c1.8,0,3.4,1.5,3.4,3.4V37c0,1.9-1.5,3.4-3.4,3.4h-9.6
			c-1.9,0-3.4-1.5-3.4-3.4v-1.5h3.5v1.3h9.2v-2.9h-9.4c-1.9,0-3.4-1.5-3.4-3.4v-3.2c0-1.9,1.5-3.4,3.4-3.4h9.6
			c1.8,0,3.4,1.5,3.4,3.4L101.6,28.8L101.6,28.8z"/>
		<path class="st0" d="M113.5,27.1c1.7,0,3.1,1.4,3.1,3.1v6.9c0,1.7-1.4,3.1-3.1,3.1h-7.1c-1.7,0-3.1-1.4-3.1-3.1v-6.9
			c0-1.7,1.4-3.1,3.1-3.1C106.4,27.1,113.5,27.1,113.5,27.1z M106.4,30c-0.1,0-0.2,0.1-0.2,0.2v6.9c0,0.1,0.1,0.2,0.2,0.2h7.1
			c0.1,0,0.2-0.1,0.2-0.2v-6.9c0-0.1-0.1-0.2-0.2-0.2C113.5,30,106.4,30,106.4,30z"/>
		<path class="st0" d="M121.3,25.9v1.2h5.1v3h-5.1v10.2h-3V25.9c0-1.7,1.4-3.1,3.1-3.1h5v3h-5C121.3,25.7,121.3,25.8,121.3,25.9z"/>
		<path class="st0" d="M130.7,30v7c0,0.1,0.1,0.2,0.2,0.2h5v3h-5c-1.7,0-3.1-1.4-3.1-3.1V22.8h3v4.3h5.1v3L130.7,30L130.7,30z"/>
		<path class="st0" d="M159.2,27.1l-4.9,13.1H152l-4-8.8l-3.8,8.8h-2.3l-5.2-13.1h3.1l3.2,7.7c1.1-2.6,2.3-5.2,3.4-7.7h3.1l3.6,7.8
			c1-2.6,2-5.3,3-7.8C156.1,27.1,159.2,27.1,159.2,27.1z"/>
		<path class="st0" d="M173.3,30.2v10h-10.2c-1.7,0-3.1-1.4-3.1-3.1v-4.9h10.4v-1.9c0-0.1-0.1-0.2-0.2-0.2H160v-3h10.2
			C171.9,27.1,173.3,28.5,173.3,30.2z M170.4,35.1H163V37c0,0.1,0.1,0.2,0.2,0.2h7.2V35.1z"/>
		<path class="st0" d="M185,27.1v3h-7.3c-0.1,0-0.2,0.1-0.2,0.2v10h-3v-10c0-1.7,1.4-3.1,3.1-3.1h7.4V27.1z"/>
		<path class="st0" d="M199.2,30.2v4.9h-10.4V37c0,0.1,0.1,0.2,0.2,0.2h10.2v3H189c-1.7,0-3.1-1.4-3.1-3.1v-6.9
			c0-1.7,1.4-3.1,3.1-3.1h7.1C197.8,27.1,199.2,28.5,199.2,30.2z M196.3,32.1v-1.9c0-0.1-0.1-0.2-0.2-0.2H189
			c-0.1,0-0.2,0.1-0.2,0.2v1.9H196.3z"/>
	</g>
	<g>
		<path class="st0" d="M56.5,48.1v0.6h-4.1v1.7h3.3V51h-3.3v2.3h-0.6v-5.1L56.5,48.1L56.5,48.1z"/>
		<path class="st0" d="M62.5,49.1v3.3c0,0.5-0.4,0.9-0.9,0.9h-2.5c-0.5,0-0.9-0.4-0.9-0.9v-3.3h0.6v3.3c0,0.1,0.1,0.3,0.3,0.3h2.5
			c0.2,0,0.3-0.1,0.3-0.3v-3.3H62.5z"/>
		<path class="st0" d="M65,49.6v2.7c0,0.1,0.1,0.3,0.3,0.3h1.5v0.6h-1.5c-0.5,0-0.9-0.4-0.9-0.9v-4.6H65V49h1.8v0.6
			C66.8,49.6,65,49.6,65,49.6z"/>
		<path class="st0" d="M72.8,49.1v3.3c0,0.5-0.4,0.9-0.9,0.9h-2.5c-0.5,0-0.9-0.4-0.9-0.9v-3.3h0.6v3.3c0,0.1,0.1,0.3,0.3,0.3h2.5
			c0.2,0,0.3-0.1,0.3-0.3v-3.3H72.8z"/>
		<path class="st0" d="M78,49.1v0.6h-2.3c-0.1,0-0.3,0.1-0.3,0.3v3.3h-0.6V50c0-0.5,0.4-0.9,0.9-0.9C75.7,49.1,78,49.1,78,49.1z"/>
		<path class="st0" d="M84,49.9v1.5h-3.6v0.9c0,0.1,0.1,0.3,0.3,0.3H84v0.6h-3.3c-0.5,0-0.9-0.4-0.9-0.9v-2.4c0-0.5,0.4-0.9,0.9-0.9
			h2.5C83.6,49.1,84,49.4,84,49.9z M83.4,50.8v-0.9c0-0.1-0.1-0.3-0.3-0.3h-2.5c-0.1,0-0.3,0.1-0.3,0.3v0.9H83.4z"/>
		<path class="st0" d="M94.4,49.1h-0.6v-0.2c0-0.1-0.1-0.3-0.3-0.3h-3.4c-0.1,0-0.3,0.1-0.3,0.3V50c0,0.1,0.1,0.3,0.3,0.3h3.4
			c0.5,0,0.9,0.4,0.9,0.9v1.1c0,0.5-0.4,0.9-0.9,0.9h-3.4c-0.5,0-0.9-0.4-0.9-0.9v-0.2h0.6v0.2c0,0.1,0.1,0.3,0.3,0.3h3.4
			c0.1,0,0.3-0.1,0.3-0.3v-1.1c0-0.1-0.1-0.3-0.3-0.3h-3.4c-0.5,0-0.9-0.4-0.9-0.9v-1.1c0-0.5,0.4-0.9,0.9-0.9h3.4
			c0.5,0,0.9,0.4,0.9,0.9V49.1z"/>
		<path class="st0" d="M99.7,49.1c0.5,0,0.9,0.4,0.9,0.9v2.4c0,0.5-0.4,0.9-0.9,0.9h-2.5c-0.5,0-0.9-0.4-0.9-0.9V50
			c0-0.5,0.4-0.9,0.9-0.9H99.7z M97.2,49.6c-0.1,0-0.3,0.1-0.3,0.3v2.4c0,0.1,0.1,0.3,0.3,0.3h2.5c0.2,0,0.3-0.1,0.3-0.3v-2.4
			c0-0.1-0.1-0.3-0.3-0.3H97.2z"/>
		<path class="st0" d="M103.1,47.7v4.6c0,0.1,0.1,0.3,0.3,0.3h0.7v0.6h-0.7c-0.5,0-0.9-0.4-0.9-0.9v-4.6
			C102.5,47.7,103.1,47.7,103.1,47.7z"/>
		<path class="st0" d="M110.1,49.1v3.3c0,0.5-0.4,0.9-0.9,0.9h-2.5c-0.5,0-0.9-0.4-0.9-0.9v-3.3h0.6v3.3c0,0.1,0.1,0.3,0.3,0.3h2.5
			c0.2,0,0.3-0.1,0.3-0.3v-3.3H110.1z"/>
		<path class="st0" d="M112.7,49.6v2.7c0,0.1,0.1,0.3,0.3,0.3h1.5v0.6H113c-0.5,0-0.9-0.4-0.9-0.9v-4.6h0.6V49h1.8v0.6
			C114.5,49.6,112.7,49.6,112.7,49.6z"/>
		<path class="st0" d="M116.9,47.7v0.6h-0.6v-0.6H116.9z M116.3,49.1h0.6v4.1h-0.6V49.1z"/>
		<path class="st0" d="M122.4,49.1c0.5,0,0.9,0.4,0.9,0.9v2.4c0,0.5-0.4,0.9-0.9,0.9H120c-0.5,0-0.9-0.4-0.9-0.9V50
			c0-0.5,0.4-0.9,0.9-0.9H122.4z M120,49.6c-0.1,0-0.3,0.1-0.3,0.3v2.4c0,0.1,0.1,0.3,0.3,0.3h2.5c0.2,0,0.3-0.1,0.3-0.3v-2.4
			c0-0.1-0.1-0.3-0.3-0.3H120z"/>
		<path class="st0" d="M129.4,49.9v3.3h-0.6v-3.3c0-0.1-0.1-0.3-0.3-0.3H126c-0.2,0-0.3,0.1-0.3,0.3v3.3h-0.6v-4.1h3.3
			C129,49.1,129.4,49.4,129.4,49.9z"/>
		<path class="st0" d="M135.6,50H135v-0.1c0-0.1-0.1-0.3-0.3-0.3h-2.5c-0.1,0-0.3,0.1-0.3,0.3v0.6c0,0.1,0.1,0.3,0.3,0.3h2.5
			c0.5,0,0.9,0.4,0.9,0.9v0.6c0,0.5-0.4,0.9-0.9,0.9h-2.5c-0.5,0-0.9-0.4-0.9-0.9v-0.1h0.6v0.1c0,0.1,0.1,0.3,0.3,0.3h2.5
			c0.1,0,0.3-0.1,0.3-0.3v-0.6c0-0.1-0.1-0.3-0.3-0.3h-2.5c-0.5,0-0.9-0.4-0.9-0.9v-0.6c0-0.5,0.4-0.9,0.9-0.9h2.5
			C135.2,49.1,135.6,49.4,135.6,50L135.6,50z"/>
		<path class="st0" d="M141.5,47.7v0.6h-0.6v-0.6H141.5z M140.9,49.1h0.6v4.1h-0.6V49.1z"/>
		<path class="st0" d="M147.8,49.9v3.3h-0.6v-3.3c0-0.1-0.1-0.3-0.3-0.3h-2.5c-0.2,0-0.3,0.1-0.3,0.3v3.3h-0.6v-4.1h3.3
			C147.4,49.1,147.8,49.4,147.8,49.9z"/>
		<path class="st0" d="M158.2,49.1h-0.6v-0.2c0-0.1-0.1-0.3-0.3-0.3h-3.4c-0.1,0-0.3,0.1-0.3,0.3V50c0,0.1,0.1,0.3,0.3,0.3h3.4
			c0.5,0,0.9,0.4,0.9,0.9v1.1c0,0.5-0.4,0.9-0.9,0.9h-3.4c-0.5,0-0.9-0.4-0.9-0.9v-0.2h0.6v0.2c0,0.1,0.1,0.3,0.3,0.3h3.4
			c0.1,0,0.3-0.1,0.3-0.3v-1.1c0-0.1-0.1-0.3-0.3-0.3h-3.4c-0.5,0-0.9-0.4-0.9-0.9v-1.1c0-0.5,0.4-0.9,0.9-0.9h3.4
			c0.5,0,0.9,0.4,0.9,0.9V49.1z"/>
		<path class="st0" d="M163.5,49.1c0.5,0,0.9,0.4,0.9,0.9v2.4c0,0.5-0.4,0.9-0.9,0.9H161c-0.5,0-0.9-0.4-0.9-0.9V50
			c0-0.5,0.4-0.9,0.9-0.9H163.5z M161,49.6c-0.1,0-0.3,0.1-0.3,0.3v2.4c0,0.1,0.1,0.3,0.3,0.3h2.5c0.2,0,0.3-0.1,0.3-0.3v-2.4
			c0-0.1-0.1-0.3-0.3-0.3H161z"/>
		<path class="st0" d="M167,48.6v0.5h1.8v0.6H167v3.5h-0.6v-4.6c0-0.5,0.4-0.9,0.9-0.9h1.5v0.6h-1.5C167.1,48.3,167,48.4,167,48.6z"
			/>
		<path class="st0" d="M171.2,49.6v2.7c0,0.1,0.1,0.3,0.3,0.3h1.5v0.6h-1.5c-0.5,0-0.9-0.4-0.9-0.9v-4.6h0.6V49h1.8v0.6
			C173,49.6,171.2,49.6,171.2,49.6z"/>
		<path class="st0" d="M181.9,49.1l-1.6,4.1h-0.5l-1.5-3.4l-1.5,3.4h-0.5c-0.6-1.4-1.1-2.7-1.6-4.1h0.6l1.3,3.1l1.3-3.1h0.8l1.4,3.1
			l1.2-3.1H181.9z"/>
		<path class="st0" d="M188,49.9v3.3h-3.3c-0.5,0-0.9-0.4-0.9-0.9v-1.5h3.6v-0.9c0-0.1-0.1-0.3-0.3-0.3h-3.3V49h3.3
			C187.6,49.1,188,49.4,188,49.9z M187.4,51.4h-3v0.9c0,0.1,0.1,0.3,0.3,0.3h2.7V51.4z"/>
		<path class="st0" d="M193.1,49.1v0.6h-2.3c-0.1,0-0.3,0.1-0.3,0.3v3.3H190V50c0-0.5,0.4-0.9,0.9-0.9
			C190.9,49.1,193.1,49.1,193.1,49.1z"/>
		<path class="st0" d="M199.1,49.9v1.5h-3.6v0.9c0,0.1,0.1,0.3,0.3,0.3h3.3v0.6h-3.3c-0.5,0-0.9-0.4-0.9-0.9v-2.4
			c0-0.5,0.4-0.9,0.9-0.9h2.5C198.7,49.1,199.1,49.4,199.1,49.9z M198.5,50.8v-0.9c0-0.1-0.1-0.3-0.3-0.3h-2.5
			c-0.1,0-0.3,0.1-0.3,0.3v0.9H198.5z"/>
	</g>
	<g>
		<rect x="21.8" y="23.9" class="st0" width="5.6" height="20.7"/>
		<rect x="21.8" y="46.3" class="st0" width="5.6" height="6.5"/>
		<rect x="29.3" y="39.2" class="st0" width="5.6" height="13.6"/>
		<rect x="37.2" y="31.4" class="st0" width="5.6" height="21.4"/>
		<rect x="29.3" y="23.8" class="st0" width="5.6" height="13.6"/>
		<rect x="37.2" y="23.8" class="st0" width="5.6" height="5.9"/>
		<rect x="20.3" y="8.8" class="st0" width="30.3" height="5.6"/>
		<rect x="18.9" y="16.2" class="st0" width="26.6" height="5.6"/>
		<rect x="18.9" y="54.4" class="st0" width="26.6" height="5.6"/>
		<rect x="11.7" y="1.1" class="st0" width="5.6" height="5.6"/>
		<rect x="13.3" y="8.8" class="st0" width="5.6" height="5.6"/>
		<rect x="5.6" y="7.2" class="st0" width="5.6" height="5.6"/>
		<rect x="3.7" y="1.8" class="st0" width="4" height="4"/>
		<rect y="0" class="st0" width="2" height="2"/>
	</g>
</g>
</svg>
