<?xml version="1.0" encoding="utf-8"?>
<!-- Generator: Adobe Illustrator 15.0.0, SVG Export Plug-In . SVG Version: 6.00 Build 0)  -->
<!DOCTYPE svg PUBLIC "-//W3C//DTD SVG 1.1//EN" "http://www.w3.org/Graphics/SVG/1.1/DTD/svg11.dtd">
<svg version="1.1" id="katman_1" xmlns="http://www.w3.org/2000/svg" xmlns:xlink="http://www.w3.org/1999/xlink" x="0px" y="0px"
	 width="230px" height="27.309px" viewBox="0 0 230 27.309" enable-background="new 0 0 230 27.309" xml:space="preserve">
<g>
	<path fill-rule="evenodd" clip-rule="evenodd" d="M188.05,4.441h-11.589v21.587h-3.239V4.441h-12.066V1.197h26.895V4.441z
		 M155.898,26.028h-3.239V11.849h-20.098v14.179h-3.239V1.197h3.239v7.408h20.098V1.197h3.239V26.028z M124.807,18.961
		c0,4.76-2.142,7.141-6.426,7.141h-5.836c-2.493,0.033-4.423,0.049-5.784,0.049c-2.326,0-4.187-0.732-5.585-2.196
		c-1.396-1.498-2.095-3.412-2.095-5.74V9.33c0-2.336,0.72-4.26,2.147-5.79c1.425-1.535,3.305-2.296,5.635-2.296h16.754v3.244
		h-16.754c-1.33,0-2.412,0.511-3.242,1.545c-0.833,1-1.249,2.404-1.249,3.771v8.262c0,1.33,0.4,2.464,1.199,3.394
		c0.796,0.935,1.859,1.417,3.189,1.448l10.969,0.202c2.194,0.031,3.375-1.302,3.54-3.997c0.1-1.267-0.165-2.247-0.799-2.946
		c-0.631-0.699-1.477-1.05-2.542-1.05h-7.777l0.052-3.195l8.177-0.047c1.859,0,3.387,0.631,4.586,1.896
		C124.198,15.039,124.807,16.767,124.807,18.961z M93.024,26.028h-3.239V1.197h3.239V26.028z M85.108,26.028H72.165
		c-2.263,0-4.125-0.774-5.591-2.341c-1.458-1.568-2.189-3.48-2.189-5.743l0.044-16.729h3.245v16.478
		c0,1.333,0.414,2.514,1.249,3.549c0.825,1.028,1.914,1.547,3.242,1.547h12.943V26.028z M58.137,9.82
		c0,2.331-0.77,4.598-2.299,6.057c-1.526,1.469-3.472,2.197-5.834,2.197c-0.231,0-1.147-0.016-2.742-0.05l10.951,5.036v2.969h-2.045
		l-18.034-8.253v-2.943h11.521c3.491,0,5.237-2.134,5.237-5.661c0-1.532-0.466-2.697-1.396-3.496c-0.896-0.83-2.113-1.25-3.645-1.25
		c-1.126,0-2.823,0.016-5.083,0.047h-5.038c-1.296,0-2.409,0.471-3.344,1.401c-0.896,0.898-1.343,1.998-1.343,3.297v16.858h-3.242
		V9.938c0-2.262,0.749-4.574,2.247-6.211c1.524-1.663,3.422-2.493,5.683-2.493h10.728c2.454,0,4.362,0.83,5.732,2.493
		C57.482,5.258,58.137,7.288,58.137,9.82z M4.485,14.669c0.786-0.914,1.826-1.398,3.119-1.443l10.54-0.113V9.872L7.604,9.977
		l-0.16,0.002c-2.218,0.05-4.006,0.778-5.354,2.194C0.696,13.669,0,15.586,0,17.914v0.002c0,2.333,0.712,4.266,2.139,5.795
		c1.433,1.532,3.31,2.3,5.635,2.3h6.083l3.538,0.018c2.325,0,4.185-0.728,5.58-2.191c1.404-1.498,2.098-3.412,2.098-5.745V9.278
		c0-2.328-0.718-4.263-2.147-5.79c-1.43-1.532-3.305-2.299-5.633-2.299H2.184v3.247h6.903h8.206c1.333,0,2.415,0.516,3.242,1.548
		c0.833,0.998,1.249,2.181,1.249,3.545v8.413c0,1.333-0.4,2.467-1.199,3.396c-0.796,0.932-1.865,1.417-3.189,1.45l-2.577,0.003
		l-7.044-0.028c-1.328,0-2.406-0.514-3.242-1.545c-0.827-1.003-1.247-1.812-1.247-3.173v0.021
		C3.286,16.733,3.689,15.602,4.485,14.669z"/>
	<path fill-rule="evenodd" clip-rule="evenodd" fill="#986A4C" d="M207.285,0h18.12C227.931,0,230,2.069,230,4.596v18.12
		c0,2.527-2.069,4.593-4.596,4.593h-14.499c-0.013,0-0.026,0-0.037-0.005l-8.175-17.049l-0.003-0.076V4.596
		C202.691,2.069,204.759,0,207.285,0z"/>
	<path fill-rule="evenodd" clip-rule="evenodd" d="M202.691,10.275l8.184,16.979l2.351-2.985c1.546-2.346,1.302-4.611-1.107-6.761
		L202.691,10.275z"/>
</g>
</svg>
